#tb 0: 1/25
0,          0,          0,        1,   152064, 0x68905a2e
0,          1,          1,        1,   152064, 0x52e6c8f6
0,          2,          2,        1,   152064, 0x3aae8670
0,          3,          3,        1,   152064, 0x8e0b3a3b
0,          4,          4,        1,   152064, 0xb52a6c9e
